<mxfile host="app.diagrams.net" modified="2023-12-02T22:35:08.128Z" agent="Mozilla/5.0 (Windows NT 10.0; Win64; x64) AppleWebKit/537.36 (KHTML, like Gecko) Chrome/119.0.0.0 Safari/537.36" etag="Bd59nYhCXZf1TdSToAHH" version="21.3.8" type="device">
  <diagram name="Page-1" id="c4acf3e9-155e-7222-9cf6-157b1a14988f">
    <mxGraphModel dx="2074" dy="1110" grid="1" gridSize="10" guides="1" tooltips="1" connect="1" arrows="1" fold="1" page="1" pageScale="1" pageWidth="850" pageHeight="1100" background="none" math="0" shadow="0">
      <root>
        <mxCell id="0" />
        <mxCell id="1" parent="0" />
        <mxCell id="242lKTvNhP0OA50zmjdK-2" value="&lt;font style=&quot;font-size: 18px;&quot;&gt;Car&lt;/font&gt;" style="swimlane;fontStyle=1;align=center;verticalAlign=top;childLayout=stackLayout;horizontal=1;startSize=40;horizontalStack=0;resizeParent=1;resizeParentMax=0;resizeLast=0;collapsible=1;marginBottom=0;whiteSpace=wrap;html=1;fillColor=#60a917;fontColor=#ffffff;strokeColor=#2D7600;" vertex="1" parent="1">
          <mxGeometry x="40" y="120" width="220" height="390" as="geometry" />
        </mxCell>
        <mxCell id="242lKTvNhP0OA50zmjdK-3" value="&lt;font style=&quot;font-size: 18px;&quot;&gt;brand : str&lt;br&gt;model : str&lt;br&gt;color : str&lt;br&gt;body_type : str&lt;br&gt;wheel_count : int&lt;br&gt;fuel_type : str&lt;br&gt;trasmission_type : str&lt;br&gt;engine_capacity : float&lt;/font&gt;" style="text;align=left;verticalAlign=top;spacingLeft=4;spacingRight=4;overflow=hidden;rotatable=0;points=[[0,0.5],[1,0.5]];portConstraint=eastwest;whiteSpace=wrap;html=1;fillColor=#60a917;fontColor=#ffffff;strokeColor=#2D7600;" vertex="1" parent="242lKTvNhP0OA50zmjdK-2">
          <mxGeometry y="40" width="220" height="200" as="geometry" />
        </mxCell>
        <mxCell id="242lKTvNhP0OA50zmjdK-4" value="" style="line;strokeWidth=1;align=left;verticalAlign=middle;spacingTop=-1;spacingLeft=3;spacingRight=3;rotatable=0;labelPosition=right;points=[];portConstraint=eastwest;fillColor=#60a917;fontColor=#ffffff;strokeColor=#2D7600;" vertex="1" parent="242lKTvNhP0OA50zmjdK-2">
          <mxGeometry y="240" width="220" height="8" as="geometry" />
        </mxCell>
        <mxCell id="242lKTvNhP0OA50zmjdK-5" value="&lt;font style=&quot;font-size: 18px;&quot;&gt;move()&lt;br&gt;service()&lt;br&gt;gear_shifting()&lt;br&gt;turn_lights()&lt;br&gt;turn_wipers()&lt;br&gt;&lt;/font&gt;" style="text;align=left;verticalAlign=top;spacingLeft=4;spacingRight=4;overflow=hidden;rotatable=0;points=[[0,0.5],[1,0.5]];portConstraint=eastwest;whiteSpace=wrap;html=1;fillColor=#60a917;fontColor=#ffffff;strokeColor=#2D7600;" vertex="1" parent="242lKTvNhP0OA50zmjdK-2">
          <mxGeometry y="248" width="220" height="142" as="geometry" />
        </mxCell>
        <mxCell id="242lKTvNhP0OA50zmjdK-6" value="&lt;span style=&quot;font-size: 18px;&quot;&gt;PickUp&lt;/span&gt;" style="swimlane;fontStyle=1;align=center;verticalAlign=top;childLayout=stackLayout;horizontal=1;startSize=40;horizontalStack=0;resizeParent=1;resizeParentMax=0;resizeLast=0;collapsible=1;marginBottom=0;whiteSpace=wrap;html=1;fillColor=#60a917;fontColor=#ffffff;strokeColor=#2D7600;" vertex="1" parent="1">
          <mxGeometry x="460" y="120" width="220" height="390" as="geometry" />
        </mxCell>
        <mxCell id="242lKTvNhP0OA50zmjdK-7" value="&lt;span style=&quot;font-size: 18px;&quot;&gt;load_capacity : int&lt;/span&gt;" style="text;align=left;verticalAlign=top;spacingLeft=4;spacingRight=4;overflow=hidden;rotatable=0;points=[[0,0.5],[1,0.5]];portConstraint=eastwest;whiteSpace=wrap;html=1;fillColor=#60a917;fontColor=#ffffff;strokeColor=#2D7600;" vertex="1" parent="242lKTvNhP0OA50zmjdK-6">
          <mxGeometry y="40" width="220" height="200" as="geometry" />
        </mxCell>
        <mxCell id="242lKTvNhP0OA50zmjdK-8" value="" style="line;strokeWidth=1;align=left;verticalAlign=middle;spacingTop=-1;spacingLeft=3;spacingRight=3;rotatable=0;labelPosition=right;points=[];portConstraint=eastwest;fillColor=#60a917;fontColor=#ffffff;strokeColor=#2D7600;" vertex="1" parent="242lKTvNhP0OA50zmjdK-6">
          <mxGeometry y="240" width="220" height="8" as="geometry" />
        </mxCell>
        <mxCell id="242lKTvNhP0OA50zmjdK-9" value="&lt;font style=&quot;font-size: 18px;&quot;&gt;sweep_street()&lt;br&gt;refill()&lt;br&gt;&lt;/font&gt;" style="text;align=left;verticalAlign=top;spacingLeft=4;spacingRight=4;overflow=hidden;rotatable=0;points=[[0,0.5],[1,0.5]];portConstraint=eastwest;whiteSpace=wrap;html=1;fillColor=#60a917;fontColor=#ffffff;strokeColor=#2D7600;" vertex="1" parent="242lKTvNhP0OA50zmjdK-6">
          <mxGeometry y="248" width="220" height="142" as="geometry" />
        </mxCell>
        <mxCell id="242lKTvNhP0OA50zmjdK-10" value="Extends" style="endArrow=block;endSize=16;endFill=0;html=1;rounded=0;fillColor=#60a917;strokeColor=#2D7600;" edge="1" parent="1" source="242lKTvNhP0OA50zmjdK-7" target="242lKTvNhP0OA50zmjdK-3">
          <mxGeometry width="160" relative="1" as="geometry">
            <mxPoint x="320" y="410" as="sourcePoint" />
            <mxPoint x="250" y="260" as="targetPoint" />
          </mxGeometry>
        </mxCell>
        <mxCell id="242lKTvNhP0OA50zmjdK-16" value="&lt;p style=&quot;margin:0px;margin-top:4px;text-align:center;&quot;&gt;&lt;font style=&quot;font-size: 18px;&quot;&gt;&lt;i&gt;&amp;lt;&amp;lt;Interface&amp;gt;&amp;gt;&lt;/i&gt;&lt;br&gt;&lt;b&gt;iFuelStation&lt;/b&gt;&lt;/font&gt;&lt;/p&gt;&lt;font size=&quot;3&quot;&gt;refill()&lt;/font&gt;&lt;hr size=&quot;1&quot;&gt;&lt;p style=&quot;margin:0px;margin-left:4px;&quot;&gt;&lt;br&gt;&lt;/p&gt;" style="verticalAlign=top;align=left;overflow=fill;fontSize=12;fontFamily=Helvetica;html=1;whiteSpace=wrap;fillColor=#1ba1e2;fontColor=#ffffff;strokeColor=#006EAF;" vertex="1" parent="1">
          <mxGeometry x="310" y="640" width="190" height="140" as="geometry" />
        </mxCell>
        <mxCell id="242lKTvNhP0OA50zmjdK-17" value="&lt;p style=&quot;margin:0px;margin-top:4px;text-align:center;&quot;&gt;&lt;font style=&quot;font-size: 18px;&quot;&gt;&lt;i&gt;&amp;lt;&amp;lt;Interface&amp;gt;&amp;gt;&lt;/i&gt;&lt;br&gt;&lt;b&gt;iCarWash&lt;/b&gt;&lt;/font&gt;&lt;/p&gt;&lt;font size=&quot;3&quot;&gt;weep_windshield()&lt;br&gt;weep_headlight()&lt;br&gt;weep_mirror()&lt;br&gt;&lt;/font&gt;&lt;hr size=&quot;1&quot;&gt;&lt;p style=&quot;margin:0px;margin-left:4px;&quot;&gt;&lt;br&gt;&lt;/p&gt;" style="verticalAlign=top;align=left;overflow=fill;fontSize=12;fontFamily=Helvetica;html=1;whiteSpace=wrap;fillColor=#1ba1e2;fontColor=#ffffff;strokeColor=#006EAF;" vertex="1" parent="1">
          <mxGeometry x="620" y="640" width="190" height="140" as="geometry" />
        </mxCell>
        <mxCell id="242lKTvNhP0OA50zmjdK-18" value="" style="endArrow=block;dashed=1;endFill=0;endSize=12;html=1;rounded=0;entryX=0.5;entryY=0;entryDx=0;entryDy=0;" edge="1" parent="1" source="242lKTvNhP0OA50zmjdK-9" target="242lKTvNhP0OA50zmjdK-16">
          <mxGeometry width="160" relative="1" as="geometry">
            <mxPoint x="320" y="410" as="sourcePoint" />
            <mxPoint x="480" y="410" as="targetPoint" />
          </mxGeometry>
        </mxCell>
      </root>
    </mxGraphModel>
  </diagram>
</mxfile>
